<?xml version="1.0" encoding="UTF-8" standalone="no"?>
<!DOCTYPE svg PUBLIC "-//W3C//DTD SVG 1.1//EN"
 "http://www.w3.org/Graphics/SVG/1.1/DTD/svg11.dtd">
<!-- Generated by graphviz version 2.43.0 (0)
 -->
<!-- Title: %3 Pages: 1 -->
<svg width="728pt" height="1195pt"
 viewBox="0.00 0.00 728.00 1195.00" xmlns="http://www.w3.org/2000/svg" xmlns:xlink="http://www.w3.org/1999/xlink">
<g id="graph0" class="graph" transform="scale(1 1) rotate(0) translate(4 1191)">
<title>%3</title>
<polygon fill="white" stroke="transparent" points="-4,4 -4,-1191 724,-1191 724,4 -4,4"/>
<!-- X1 -->
<g id="node1" class="node">
<title>X1</title>
<polygon fill="white" stroke="transparent" points="188,-886.5 0,-886.5 0,-397.5 188,-397.5 188,-886.5"/>
<polygon fill="none" stroke="black" points="0,-863 0,-886 188,-886 188,-863 0,-863"/>
<text text-anchor="start" x="85.5" y="-870.8" font-family="arial" font-size="14.00">X1</text>
<polygon fill="none" stroke="black" points="0,-840 0,-863 81,-863 81,-840 0,-840"/>
<text text-anchor="start" x="10" y="-847.8" font-family="arial" font-size="14.00">SUB D&#45;15</text>
<polygon fill="none" stroke="black" points="81,-840 81,-863 131,-863 131,-840 81,-840"/>
<text text-anchor="start" x="90.5" y="-847.8" font-family="arial" font-size="14.00">male</text>
<polygon fill="none" stroke="black" points="131,-840 131,-863 188,-863 188,-840 131,-840"/>
<text text-anchor="start" x="140.5" y="-847.8" font-family="arial" font-size="14.00">15&#45;pin</text>
<polygon fill="none" stroke="black" points="0,-817 0,-840 104,-840 104,-817 0,-817"/>
<text text-anchor="start" x="39.5" y="-824.8" font-family="arial" font-size="14.00">V1+</text>
<polygon fill="none" stroke="black" points="104,-817 104,-840 188,-840 188,-817 104,-817"/>
<text text-anchor="start" x="142" y="-824.8" font-family="arial" font-size="14.00">1</text>
<polygon fill="none" stroke="black" points="0,-794 0,-817 104,-817 104,-794 0,-794"/>
<text text-anchor="start" x="41" y="-801.8" font-family="arial" font-size="14.00">V1&#45;</text>
<polygon fill="none" stroke="black" points="104,-794 104,-817 188,-817 188,-794 104,-794"/>
<text text-anchor="start" x="142" y="-801.8" font-family="arial" font-size="14.00">2</text>
<polygon fill="none" stroke="black" points="0,-771 0,-794 104,-794 104,-771 0,-771"/>
<text text-anchor="start" x="34" y="-778.8" font-family="arial" font-size="14.00">AUX1</text>
<polygon fill="none" stroke="black" points="104,-771 104,-794 188,-794 188,-771 104,-771"/>
<text text-anchor="start" x="142" y="-778.8" font-family="arial" font-size="14.00">3</text>
<polygon fill="none" stroke="black" points="0,-748 0,-771 104,-771 104,-748 0,-748"/>
<text text-anchor="start" x="34" y="-755.8" font-family="arial" font-size="14.00">AUX2</text>
<polygon fill="none" stroke="black" points="104,-748 104,-771 188,-771 188,-748 104,-748"/>
<text text-anchor="start" x="142" y="-755.8" font-family="arial" font-size="14.00">4</text>
<polygon fill="none" stroke="black" points="0,-725 0,-748 104,-748 104,-725 0,-725"/>
<text text-anchor="start" x="34" y="-732.8" font-family="arial" font-size="14.00">Scom</text>
<polygon fill="none" stroke="black" points="104,-725 104,-748 188,-748 188,-725 104,-725"/>
<text text-anchor="start" x="142" y="-732.8" font-family="arial" font-size="14.00">5</text>
<polygon fill="none" stroke="black" points="0,-702 0,-725 104,-725 104,-702 0,-702"/>
<text text-anchor="start" x="39.5" y="-709.8" font-family="arial" font-size="14.00">V2+</text>
<polygon fill="none" stroke="black" points="104,-702 104,-725 188,-725 188,-702 104,-702"/>
<text text-anchor="start" x="142" y="-709.8" font-family="arial" font-size="14.00">6</text>
<polygon fill="none" stroke="black" points="0,-679 0,-702 104,-702 104,-679 0,-679"/>
<text text-anchor="start" x="41" y="-686.8" font-family="arial" font-size="14.00">V2&#45;</text>
<polygon fill="none" stroke="black" points="104,-679 104,-702 188,-702 188,-679 104,-679"/>
<text text-anchor="start" x="142" y="-686.8" font-family="arial" font-size="14.00">7</text>
<polygon fill="none" stroke="black" points="0,-656 0,-679 104,-679 104,-656 0,-656"/>
<text text-anchor="start" x="34" y="-663.8" font-family="arial" font-size="14.00">AUX3</text>
<polygon fill="none" stroke="black" points="104,-656 104,-679 188,-679 188,-656 104,-656"/>
<text text-anchor="start" x="142" y="-663.8" font-family="arial" font-size="14.00">8</text>
<polygon fill="none" stroke="black" points="0,-633 0,-656 104,-656 104,-633 0,-633"/>
<text text-anchor="start" x="34" y="-640.8" font-family="arial" font-size="14.00">AUX4</text>
<polygon fill="none" stroke="black" points="104,-633 104,-656 188,-656 188,-633 104,-633"/>
<text text-anchor="start" x="142" y="-640.8" font-family="arial" font-size="14.00">9</text>
<polygon fill="none" stroke="black" points="0,-610 0,-633 104,-633 104,-610 0,-610"/>
<text text-anchor="start" x="34" y="-617.8" font-family="arial" font-size="14.00">AUX5</text>
<polygon fill="none" stroke="black" points="104,-610 104,-633 188,-633 188,-610 104,-610"/>
<text text-anchor="start" x="138" y="-617.8" font-family="arial" font-size="14.00">10</text>
<polygon fill="none" stroke="black" points="0,-587 0,-610 104,-610 104,-587 0,-587"/>
<text text-anchor="start" x="39.5" y="-594.8" font-family="arial" font-size="14.00">V3+</text>
<polygon fill="none" stroke="black" points="104,-587 104,-610 188,-610 188,-587 104,-587"/>
<text text-anchor="start" x="138.5" y="-594.8" font-family="arial" font-size="14.00">11</text>
<polygon fill="none" stroke="black" points="0,-564 0,-587 104,-587 104,-564 0,-564"/>
<text text-anchor="start" x="41" y="-571.8" font-family="arial" font-size="14.00">V3&#45;</text>
<polygon fill="none" stroke="black" points="104,-564 104,-587 188,-587 188,-564 104,-564"/>
<text text-anchor="start" x="138" y="-571.8" font-family="arial" font-size="14.00">12</text>
<polygon fill="none" stroke="black" points="0,-541 0,-564 104,-564 104,-541 0,-541"/>
<text text-anchor="start" x="44" y="-548.8" font-family="arial" font-size="14.00">Sx</text>
<polygon fill="none" stroke="black" points="104,-541 104,-564 188,-564 188,-541 104,-541"/>
<text text-anchor="start" x="138" y="-548.8" font-family="arial" font-size="14.00">13</text>
<polygon fill="none" stroke="black" points="0,-518 0,-541 104,-541 104,-518 0,-518"/>
<text text-anchor="start" x="44" y="-525.8" font-family="arial" font-size="14.00">Sy</text>
<polygon fill="none" stroke="black" points="104,-518 104,-541 188,-541 188,-518 104,-518"/>
<text text-anchor="start" x="138" y="-525.8" font-family="arial" font-size="14.00">14</text>
<polygon fill="none" stroke="black" points="0,-495 0,-518 104,-518 104,-495 0,-495"/>
<text text-anchor="start" x="44" y="-502.8" font-family="arial" font-size="14.00">Sz</text>
<polygon fill="none" stroke="black" points="104,-495 104,-518 188,-518 188,-495 104,-495"/>
<text text-anchor="start" x="138" y="-502.8" font-family="arial" font-size="14.00">15</text>
<polygon fill="none" stroke="black" points="0,-397 0,-495 188,-495 188,-397 0,-397"/>
<image xlink:href="DB15_male.png" width="180px" height="90px" preserveAspectRatio="xMinYMin meet" x="4" y="-491"/>
</g>
<!-- W1 -->
<g id="node9" class="node">
<title>W1</title>
<polygon fill="none" stroke="black" points="426,-1187 338,-1187 338,-1053 426,-1053 426,-1187"/>
<polygon fill="none" stroke="black" points="338,-1164 338,-1187 426,-1187 426,-1164 338,-1164"/>
<text text-anchor="start" x="371" y="-1171.8" font-family="arial" font-size="14.00">W1</text>
<polygon fill="none" stroke="black" points="338,-1141 338,-1164 426,-1164 426,-1141 338,-1141"/>
<text text-anchor="start" x="374.5" y="-1148.8" font-family="arial" font-size="14.00">2x</text>
<text text-anchor="start" x="352" y="-1127.8" font-family="arial" font-size="14.00"> </text>
<text text-anchor="start" x="340" y="-1108.8" font-family="arial" font-size="14.00">X1:1</text>
<text text-anchor="start" x="372" y="-1108.8" font-family="arial" font-size="14.00">RD</text>
<text text-anchor="start" x="396" y="-1108.8" font-family="arial" font-size="14.00">X2:1</text>
<polygon fill="#000000" stroke="transparent" points="338,-1101 338,-1103 426,-1103 426,-1101 338,-1101"/>
<polygon fill="#ff0000" stroke="transparent" points="338,-1099 338,-1101 426,-1101 426,-1099 338,-1099"/>
<polygon fill="#000000" stroke="transparent" points="338,-1097 338,-1099 426,-1099 426,-1097 338,-1097"/>
<text text-anchor="start" x="340" y="-1083.8" font-family="arial" font-size="14.00">X1:2</text>
<text text-anchor="start" x="372.5" y="-1083.8" font-family="arial" font-size="14.00">BK</text>
<text text-anchor="start" x="396" y="-1083.8" font-family="arial" font-size="14.00">X2:2</text>
<polygon fill="#000000" stroke="transparent" points="338,-1076 338,-1078 426,-1078 426,-1076 338,-1076"/>
<polygon fill="#000000" stroke="transparent" points="338,-1074 338,-1076 426,-1076 426,-1074 338,-1074"/>
<polygon fill="#000000" stroke="transparent" points="338,-1072 338,-1074 426,-1074 426,-1072 338,-1072"/>
<text text-anchor="start" x="352" y="-1058.8" font-family="arial" font-size="14.00"> </text>
</g>
<!-- X1&#45;&#45;W1 -->
<g id="edge1" class="edge">
<title>X1:e&#45;&#45;W1:w</title>
<path fill="none" stroke="#000000" stroke-width="2" d="M188,-827C327.26,-829.84 201.36,-1100.84 337,-1098"/>
<path fill="none" stroke="#ff0000" stroke-width="2" d="M188,-829C325.45,-829 199.55,-1100 337,-1100"/>
<path fill="none" stroke="#000000" stroke-width="2" d="M188,-831C323.64,-828.16 197.74,-1099.16 337,-1102"/>
</g>
<!-- X1&#45;&#45;W1 -->
<g id="edge3" class="edge">
<title>X1:e&#45;&#45;W1:w</title>
<path fill="none" stroke="#000000" stroke-width="2" d="M188,-804C326.49,-806.84 202.14,-1075.84 337,-1073"/>
<path fill="none" stroke="#000000" stroke-width="2" d="M188,-806C324.67,-806 200.33,-1075 337,-1075"/>
<path fill="none" stroke="#000000" stroke-width="2" d="M188,-808C322.86,-805.16 198.51,-1074.16 337,-1077"/>
</g>
<!-- W2 -->
<g id="node10" class="node">
<title>W2</title>
<polygon fill="none" stroke="black" points="426,-1029 338,-1029 338,-895 426,-895 426,-1029"/>
<polygon fill="none" stroke="black" points="338,-1006 338,-1029 426,-1029 426,-1006 338,-1006"/>
<text text-anchor="start" x="371" y="-1013.8" font-family="arial" font-size="14.00">W2</text>
<polygon fill="none" stroke="black" points="338,-983 338,-1006 426,-1006 426,-983 338,-983"/>
<text text-anchor="start" x="374.5" y="-990.8" font-family="arial" font-size="14.00">2x</text>
<text text-anchor="start" x="352" y="-969.8" font-family="arial" font-size="14.00"> </text>
<text text-anchor="start" x="340" y="-950.8" font-family="arial" font-size="14.00">X1:6</text>
<text text-anchor="start" x="372" y="-950.8" font-family="arial" font-size="14.00">RD</text>
<text text-anchor="start" x="396" y="-950.8" font-family="arial" font-size="14.00">X3:1</text>
<polygon fill="#000000" stroke="transparent" points="338,-943 338,-945 426,-945 426,-943 338,-943"/>
<polygon fill="#ff0000" stroke="transparent" points="338,-941 338,-943 426,-943 426,-941 338,-941"/>
<polygon fill="#000000" stroke="transparent" points="338,-939 338,-941 426,-941 426,-939 338,-939"/>
<text text-anchor="start" x="340" y="-925.8" font-family="arial" font-size="14.00">X1:7</text>
<text text-anchor="start" x="372.5" y="-925.8" font-family="arial" font-size="14.00">BK</text>
<text text-anchor="start" x="396" y="-925.8" font-family="arial" font-size="14.00">X3:2</text>
<polygon fill="#000000" stroke="transparent" points="338,-918 338,-920 426,-920 426,-918 338,-918"/>
<polygon fill="#000000" stroke="transparent" points="338,-916 338,-918 426,-918 426,-916 338,-916"/>
<polygon fill="#000000" stroke="transparent" points="338,-914 338,-916 426,-916 426,-914 338,-914"/>
<text text-anchor="start" x="352" y="-900.8" font-family="arial" font-size="14.00"> </text>
</g>
<!-- X1&#45;&#45;W2 -->
<g id="edge5" class="edge">
<title>X1:e&#45;&#45;W2:w</title>
<path fill="none" stroke="#000000" stroke-width="2" d="M188,-712C310.9,-714.76 217.8,-942.76 337,-940"/>
<path fill="none" stroke="#ff0000" stroke-width="2" d="M188,-714C309.05,-714 215.95,-942 337,-942"/>
<path fill="none" stroke="#000000" stroke-width="2" d="M188,-716C307.2,-713.24 214.1,-941.24 337,-944"/>
</g>
<!-- X1&#45;&#45;W2 -->
<g id="edge7" class="edge">
<title>X1:e&#45;&#45;W2:w</title>
<path fill="none" stroke="#000000" stroke-width="2" d="M188,-689C310.16,-691.75 218.54,-917.75 337,-915"/>
<path fill="none" stroke="#000000" stroke-width="2" d="M188,-691C308.31,-691 216.69,-917 337,-917"/>
<path fill="none" stroke="#000000" stroke-width="2" d="M188,-693C306.46,-690.25 214.84,-916.25 337,-919"/>
</g>
<!-- W3 -->
<g id="node11" class="node">
<title>W3</title>
<polygon fill="none" stroke="black" points="430,-479 334,-479 334,-345 430,-345 430,-479"/>
<polygon fill="none" stroke="black" points="334,-456 334,-479 430,-479 430,-456 334,-456"/>
<text text-anchor="start" x="371" y="-463.8" font-family="arial" font-size="14.00">W3</text>
<polygon fill="none" stroke="black" points="334,-433 334,-456 430,-456 430,-433 334,-433"/>
<text text-anchor="start" x="374.5" y="-440.8" font-family="arial" font-size="14.00">2x</text>
<text text-anchor="start" x="352" y="-419.8" font-family="arial" font-size="14.00"> </text>
<text text-anchor="start" x="336.5" y="-400.8" font-family="arial" font-size="14.00">X1:11</text>
<text text-anchor="start" x="376" y="-400.8" font-family="arial" font-size="14.00">RD</text>
<text text-anchor="start" x="400" y="-400.8" font-family="arial" font-size="14.00">X4:1</text>
<polygon fill="#000000" stroke="transparent" points="334,-393 334,-395 430,-395 430,-393 334,-393"/>
<polygon fill="#ff0000" stroke="transparent" points="334,-391 334,-393 430,-393 430,-391 334,-391"/>
<polygon fill="#000000" stroke="transparent" points="334,-389 334,-391 430,-391 430,-389 334,-389"/>
<text text-anchor="start" x="336" y="-375.8" font-family="arial" font-size="14.00">X1:12</text>
<text text-anchor="start" x="376.5" y="-375.8" font-family="arial" font-size="14.00">BK</text>
<text text-anchor="start" x="400" y="-375.8" font-family="arial" font-size="14.00">X4:2</text>
<polygon fill="#000000" stroke="transparent" points="334,-368 334,-370 430,-370 430,-368 334,-368"/>
<polygon fill="#000000" stroke="transparent" points="334,-366 334,-368 430,-368 430,-366 334,-366"/>
<polygon fill="#000000" stroke="transparent" points="334,-364 334,-366 430,-366 430,-364 334,-364"/>
<text text-anchor="start" x="352" y="-350.8" font-family="arial" font-size="14.00"> </text>
</g>
<!-- X1&#45;&#45;W3 -->
<g id="edge9" class="edge">
<title>X1:e&#45;&#45;W3:w</title>
<path fill="none" stroke="#000000" stroke-width="2" d="M188,-596C298.09,-598.72 219.17,-392.72 333,-390"/>
<path fill="none" stroke="#ff0000" stroke-width="2" d="M188,-598C299.96,-598 221.04,-392 333,-392"/>
<path fill="none" stroke="#000000" stroke-width="2" d="M188,-600C301.83,-597.28 222.91,-391.28 333,-394"/>
</g>
<!-- X1&#45;&#45;W3 -->
<g id="edge11" class="edge">
<title>X1:e&#45;&#45;W3:w</title>
<path fill="none" stroke="#000000" stroke-width="2" d="M188,-573C298.82,-575.72 218.44,-367.72 333,-365"/>
<path fill="none" stroke="#000000" stroke-width="2" d="M188,-575C300.69,-575 220.31,-367 333,-367"/>
<path fill="none" stroke="#000000" stroke-width="2" d="M188,-577C302.56,-574.28 222.18,-366.28 333,-369"/>
</g>
<!-- W4 -->
<g id="node12" class="node">
<title>W4</title>
<polygon fill="none" stroke="black" points="432,-870.5 332,-870.5 332,-661.5 432,-661.5 432,-870.5"/>
<polygon fill="none" stroke="black" points="332,-847 332,-870 432,-870 432,-847 332,-847"/>
<text text-anchor="start" x="371" y="-854.8" font-family="arial" font-size="14.00">W4</text>
<polygon fill="none" stroke="black" points="332,-824 332,-847 432,-847 432,-824 332,-824"/>
<text text-anchor="start" x="374.5" y="-831.8" font-family="arial" font-size="14.00">5x</text>
<text text-anchor="start" x="350" y="-810.8" font-family="arial" font-size="14.00"> </text>
<text text-anchor="start" x="338" y="-791.8" font-family="arial" font-size="14.00">X1:3</text>
<text text-anchor="start" x="374" y="-791.8" font-family="arial" font-size="14.00">WH</text>
<text text-anchor="start" x="402" y="-791.8" font-family="arial" font-size="14.00">X8:1</text>
<polygon fill="#000000" stroke="transparent" points="332,-784 332,-786 432,-786 432,-784 332,-784"/>
<polygon fill="#ffffff" stroke="transparent" points="332,-782 332,-784 432,-784 432,-782 332,-782"/>
<polygon fill="#000000" stroke="transparent" points="332,-780 332,-782 432,-782 432,-780 332,-780"/>
<text text-anchor="start" x="338" y="-766.8" font-family="arial" font-size="14.00">X1:4</text>
<text text-anchor="start" x="374" y="-766.8" font-family="arial" font-size="14.00">WH</text>
<text text-anchor="start" x="402" y="-766.8" font-family="arial" font-size="14.00">X8:2</text>
<polygon fill="#000000" stroke="transparent" points="332,-759 332,-761 432,-761 432,-759 332,-759"/>
<polygon fill="#ffffff" stroke="transparent" points="332,-757 332,-759 432,-759 432,-757 332,-757"/>
<polygon fill="#000000" stroke="transparent" points="332,-755 332,-757 432,-757 432,-755 332,-755"/>
<text text-anchor="start" x="338" y="-741.8" font-family="arial" font-size="14.00">X1:8</text>
<text text-anchor="start" x="374" y="-741.8" font-family="arial" font-size="14.00">WH</text>
<text text-anchor="start" x="402" y="-741.8" font-family="arial" font-size="14.00">X8:3</text>
<polygon fill="#000000" stroke="transparent" points="332,-734 332,-736 432,-736 432,-734 332,-734"/>
<polygon fill="#ffffff" stroke="transparent" points="332,-732 332,-734 432,-734 432,-732 332,-732"/>
<polygon fill="#000000" stroke="transparent" points="332,-730 332,-732 432,-732 432,-730 332,-730"/>
<text text-anchor="start" x="338" y="-716.8" font-family="arial" font-size="14.00">X1:9</text>
<text text-anchor="start" x="374" y="-716.8" font-family="arial" font-size="14.00">WH</text>
<text text-anchor="start" x="402" y="-716.8" font-family="arial" font-size="14.00">X8:4</text>
<polygon fill="#000000" stroke="transparent" points="332,-709 332,-711 432,-711 432,-709 332,-709"/>
<polygon fill="#ffffff" stroke="transparent" points="332,-707 332,-709 432,-709 432,-707 332,-707"/>
<polygon fill="#000000" stroke="transparent" points="332,-705 332,-707 432,-707 432,-705 332,-705"/>
<text text-anchor="start" x="334" y="-691.8" font-family="arial" font-size="14.00">X1:10</text>
<text text-anchor="start" x="374" y="-691.8" font-family="arial" font-size="14.00">WH</text>
<text text-anchor="start" x="402" y="-691.8" font-family="arial" font-size="14.00">X8:5</text>
<polygon fill="#000000" stroke="transparent" points="332,-684 332,-686 432,-686 432,-684 332,-684"/>
<polygon fill="#ffffff" stroke="transparent" points="332,-682 332,-684 432,-684 432,-682 332,-682"/>
<polygon fill="#000000" stroke="transparent" points="332,-680 332,-682 432,-682 432,-680 332,-680"/>
<text text-anchor="start" x="350" y="-666.8" font-family="arial" font-size="14.00"> </text>
</g>
<!-- X1&#45;&#45;W4 -->
<g id="edge13" class="edge">
<title>X1:e&#45;&#45;W4:w</title>
<path fill="none" stroke="#000000" stroke-width="2" d="M188,-781C252,-781 268,-781 332,-781"/>
<path fill="none" stroke="#ffffff" stroke-width="2" d="M188,-783C252,-783 268,-783 332,-783"/>
<path fill="none" stroke="#000000" stroke-width="2" d="M188,-785C252,-785 268,-785 332,-785"/>
</g>
<!-- X1&#45;&#45;W4 -->
<g id="edge15" class="edge">
<title>X1:e&#45;&#45;W4:w</title>
<path fill="none" stroke="#000000" stroke-width="2" d="M188,-758C251.76,-758.02 267.75,-756.02 332,-756"/>
<path fill="none" stroke="#ffffff" stroke-width="2" d="M188,-760C252.01,-760 267.99,-758 332,-758"/>
<path fill="none" stroke="#000000" stroke-width="2" d="M188,-762C252.25,-761.98 268.24,-759.98 332,-760"/>
</g>
<!-- X1&#45;&#45;W4 -->
<g id="edge17" class="edge">
<title>X1:e&#45;&#45;W4:w</title>
<path fill="none" stroke="#000000" stroke-width="2" d="M188,-666C260.22,-667.89 263.78,-732.89 332,-731"/>
<path fill="none" stroke="#ffffff" stroke-width="2" d="M188,-668C258.22,-668 261.78,-733 332,-733"/>
<path fill="none" stroke="#000000" stroke-width="2" d="M188,-670C256.22,-668.11 259.78,-733.11 332,-735"/>
</g>
<!-- X1&#45;&#45;W4 -->
<g id="edge19" class="edge">
<title>X1:e&#45;&#45;W4:w</title>
<path fill="none" stroke="#000000" stroke-width="2" d="M188,-643C259.85,-644.86 264.14,-707.86 332,-706"/>
<path fill="none" stroke="#ffffff" stroke-width="2" d="M188,-645C257.86,-645 262.14,-708 332,-708"/>
<path fill="none" stroke="#000000" stroke-width="2" d="M188,-647C255.86,-645.14 260.15,-708.14 332,-710"/>
</g>
<!-- X1&#45;&#45;W4 -->
<g id="edge21" class="edge">
<title>X1:e&#45;&#45;W4:w</title>
<path fill="none" stroke="#000000" stroke-width="2" d="M188,-619C259.67,-620.85 264.31,-682.85 332,-681"/>
<path fill="none" stroke="#ffffff" stroke-width="2" d="M188,-621C257.68,-621 262.32,-683 332,-683"/>
<path fill="none" stroke="#000000" stroke-width="2" d="M188,-623C255.69,-621.15 260.33,-683.15 332,-685"/>
</g>
<!-- W5 -->
<g id="node13" class="node">
<title>W5</title>
<polygon fill="none" stroke="black" points="432,-637 332,-637 332,-503 432,-503 432,-637"/>
<polygon fill="none" stroke="black" points="332,-614 332,-637 432,-637 432,-614 332,-614"/>
<text text-anchor="start" x="371" y="-621.8" font-family="arial" font-size="14.00">W5</text>
<polygon fill="none" stroke="black" points="332,-591 332,-614 432,-614 432,-591 332,-591"/>
<text text-anchor="start" x="374.5" y="-598.8" font-family="arial" font-size="14.00">2x</text>
<text text-anchor="start" x="350" y="-577.8" font-family="arial" font-size="14.00"> </text>
<text text-anchor="start" x="338" y="-558.8" font-family="arial" font-size="14.00">X1:5</text>
<text text-anchor="start" x="376.5" y="-558.8" font-family="arial" font-size="14.00">BK</text>
<text text-anchor="start" x="402" y="-558.8" font-family="arial" font-size="14.00">X5:2</text>
<polygon fill="#000000" stroke="transparent" points="332,-551 332,-553 432,-553 432,-551 332,-551"/>
<polygon fill="#000000" stroke="transparent" points="332,-549 332,-551 432,-551 432,-549 332,-549"/>
<polygon fill="#000000" stroke="transparent" points="332,-547 332,-549 432,-549 432,-547 332,-547"/>
<text text-anchor="start" x="334" y="-533.8" font-family="arial" font-size="14.00">X1:13</text>
<text text-anchor="start" x="374" y="-533.8" font-family="arial" font-size="14.00">WH</text>
<text text-anchor="start" x="402" y="-533.8" font-family="arial" font-size="14.00">X5:1</text>
<polygon fill="#000000" stroke="transparent" points="332,-526 332,-528 432,-528 432,-526 332,-526"/>
<polygon fill="#ffffff" stroke="transparent" points="332,-524 332,-526 432,-526 432,-524 332,-524"/>
<polygon fill="#000000" stroke="transparent" points="332,-522 332,-524 432,-524 432,-522 332,-522"/>
<text text-anchor="start" x="350" y="-508.8" font-family="arial" font-size="14.00"> </text>
</g>
<!-- X1&#45;&#45;W5 -->
<g id="edge23" class="edge">
<title>X1:e&#45;&#45;W5:w</title>
<path fill="none" stroke="#000000" stroke-width="2" d="M188,-735C291.01,-737.66 225.22,-550.66 332,-548"/>
<path fill="none" stroke="#000000" stroke-width="2" d="M188,-737C292.9,-737 227.1,-550 332,-550"/>
<path fill="none" stroke="#000000" stroke-width="2" d="M188,-739C294.78,-736.34 228.99,-549.34 332,-552"/>
</g>
<!-- X1&#45;&#45;W5 -->
<g id="edge25" class="edge">
<title>X1:e&#45;&#45;W5:w</title>
<path fill="none" stroke="#000000" stroke-width="2" d="M188,-550C251.33,-551.09 265.1,-524.09 332,-523"/>
<path fill="none" stroke="#ffffff" stroke-width="2" d="M188,-552C253.12,-552 266.88,-525 332,-525"/>
<path fill="none" stroke="#000000" stroke-width="2" d="M188,-554C254.9,-552.91 268.67,-525.91 332,-527"/>
</g>
<!-- W6 -->
<g id="node14" class="node">
<title>W6</title>
<polygon fill="none" stroke="black" points="429.5,-320.5 334.5,-320.5 334.5,-211.5 429.5,-211.5 429.5,-320.5"/>
<polygon fill="none" stroke="black" points="335,-297 335,-320 430,-320 430,-297 335,-297"/>
<text text-anchor="start" x="371.5" y="-304.8" font-family="arial" font-size="14.00">W6</text>
<polygon fill="none" stroke="black" points="335,-274 335,-297 430,-297 430,-274 335,-274"/>
<text text-anchor="start" x="375" y="-281.8" font-family="arial" font-size="14.00">1x</text>
<text text-anchor="start" x="353" y="-260.8" font-family="arial" font-size="14.00"> </text>
<text text-anchor="start" x="337" y="-241.8" font-family="arial" font-size="14.00">X1:14</text>
<text text-anchor="start" x="377" y="-241.8" font-family="arial" font-size="14.00">YE</text>
<text text-anchor="start" x="400" y="-241.8" font-family="arial" font-size="14.00">X6:1</text>
<polygon fill="#000000" stroke="transparent" points="335,-234 335,-236 430,-236 430,-234 335,-234"/>
<polygon fill="#ffff00" stroke="transparent" points="335,-232 335,-234 430,-234 430,-232 335,-232"/>
<polygon fill="#000000" stroke="transparent" points="335,-230 335,-232 430,-232 430,-230 335,-230"/>
<text text-anchor="start" x="353" y="-216.8" font-family="arial" font-size="14.00"> </text>
</g>
<!-- X1&#45;&#45;W6 -->
<g id="edge27" class="edge">
<title>X1:e&#45;&#45;W6:w</title>
<path fill="none" stroke="#000000" stroke-width="2" d="M188,-527C332.9,-529.89 185.52,-233.89 334,-231"/>
<path fill="none" stroke="#ffff00" stroke-width="2" d="M188,-529C334.69,-529 187.31,-233 334,-233"/>
<path fill="none" stroke="#000000" stroke-width="2" d="M188,-531C336.48,-528.11 189.1,-232.11 334,-235"/>
</g>
<!-- W7 -->
<g id="node15" class="node">
<title>W7</title>
<polygon fill="none" stroke="black" points="429.5,-183.5 334.5,-183.5 334.5,-74.5 429.5,-74.5 429.5,-183.5"/>
<polygon fill="none" stroke="black" points="335,-160 335,-183 430,-183 430,-160 335,-160"/>
<text text-anchor="start" x="371.5" y="-167.8" font-family="arial" font-size="14.00">W7</text>
<polygon fill="none" stroke="black" points="335,-137 335,-160 430,-160 430,-137 335,-137"/>
<text text-anchor="start" x="375" y="-144.8" font-family="arial" font-size="14.00">1x</text>
<text text-anchor="start" x="353" y="-123.8" font-family="arial" font-size="14.00"> </text>
<text text-anchor="start" x="337" y="-104.8" font-family="arial" font-size="14.00">X1:15</text>
<text text-anchor="start" x="377" y="-104.8" font-family="arial" font-size="14.00">BU</text>
<text text-anchor="start" x="400" y="-104.8" font-family="arial" font-size="14.00">X7:1</text>
<polygon fill="#000000" stroke="transparent" points="335,-97 335,-99 430,-99 430,-97 335,-97"/>
<polygon fill="#0066ff" stroke="transparent" points="335,-95 335,-97 430,-97 430,-95 335,-95"/>
<polygon fill="#000000" stroke="transparent" points="335,-93 335,-95 430,-95 430,-93 335,-93"/>
<text text-anchor="start" x="353" y="-79.8" font-family="arial" font-size="14.00"> </text>
</g>
<!-- X1&#45;&#45;W7 -->
<g id="edge29" class="edge">
<title>X1:e&#45;&#45;W7:w</title>
<path fill="none" stroke="#000000" stroke-width="2" d="M188,-504C379.71,-507.01 138.84,-97.01 334,-94"/>
<path fill="none" stroke="#0066ff" stroke-width="2" d="M188,-506C381.43,-506 140.57,-96 334,-96"/>
<path fill="none" stroke="#000000" stroke-width="2" d="M188,-508C383.16,-504.99 142.29,-94.99 334,-98"/>
</g>
<!-- X2 -->
<g id="node2" class="node">
<title>X2</title>
<polygon fill="white" stroke="transparent" points="720,-1157.5 576,-1157.5 576,-1042.5 720,-1042.5 720,-1157.5"/>
<polygon fill="none" stroke="black" points="576,-1134 576,-1157 720,-1157 720,-1134 576,-1134"/>
<text text-anchor="start" x="639.5" y="-1141.8" font-family="arial" font-size="14.00">X2</text>
<polygon fill="none" stroke="black" points="576,-1111 576,-1134 631,-1134 631,-1111 576,-1111"/>
<text text-anchor="start" x="580" y="-1118.8" font-family="arial" font-size="14.00">JST&#45;HX</text>
<polygon fill="none" stroke="black" points="631,-1111 631,-1134 681,-1134 681,-1111 631,-1111"/>
<text text-anchor="start" x="635" y="-1118.8" font-family="arial" font-size="14.00">female</text>
<polygon fill="none" stroke="black" points="681,-1111 681,-1134 720,-1134 720,-1111 681,-1111"/>
<text text-anchor="start" x="685" y="-1118.8" font-family="arial" font-size="14.00">2&#45;pin</text>
<polygon fill="none" stroke="black" points="576,-1088 576,-1111 648,-1111 648,-1088 576,-1088"/>
<text text-anchor="start" x="608" y="-1095.8" font-family="arial" font-size="14.00">1</text>
<polygon fill="none" stroke="black" points="648,-1088 648,-1111 720,-1111 720,-1088 648,-1088"/>
<text text-anchor="start" x="679.5" y="-1095.8" font-family="arial" font-size="14.00">+</text>
<polygon fill="none" stroke="black" points="576,-1065 576,-1088 648,-1088 648,-1065 576,-1065"/>
<text text-anchor="start" x="608" y="-1072.8" font-family="arial" font-size="14.00">2</text>
<polygon fill="none" stroke="black" points="648,-1065 648,-1088 720,-1088 720,-1065 648,-1065"/>
<text text-anchor="start" x="681.5" y="-1072.8" font-family="arial" font-size="14.00">&#45;</text>
<polygon fill="none" stroke="black" points="576,-1042 576,-1065 720,-1065 720,-1042 576,-1042"/>
<text text-anchor="start" x="630.5" y="-1049.8" font-family="arial" font-size="14.00">Fan 1</text>
</g>
<!-- X3 -->
<g id="node3" class="node">
<title>X3</title>
<polygon fill="white" stroke="transparent" points="720,-999.5 576,-999.5 576,-884.5 720,-884.5 720,-999.5"/>
<polygon fill="none" stroke="black" points="576,-976 576,-999 720,-999 720,-976 576,-976"/>
<text text-anchor="start" x="639.5" y="-983.8" font-family="arial" font-size="14.00">X3</text>
<polygon fill="none" stroke="black" points="576,-953 576,-976 631,-976 631,-953 576,-953"/>
<text text-anchor="start" x="580" y="-960.8" font-family="arial" font-size="14.00">JST&#45;HX</text>
<polygon fill="none" stroke="black" points="631,-953 631,-976 681,-976 681,-953 631,-953"/>
<text text-anchor="start" x="635" y="-960.8" font-family="arial" font-size="14.00">female</text>
<polygon fill="none" stroke="black" points="681,-953 681,-976 720,-976 720,-953 681,-953"/>
<text text-anchor="start" x="685" y="-960.8" font-family="arial" font-size="14.00">2&#45;pin</text>
<polygon fill="none" stroke="black" points="576,-930 576,-953 648,-953 648,-930 576,-930"/>
<text text-anchor="start" x="608" y="-937.8" font-family="arial" font-size="14.00">1</text>
<polygon fill="none" stroke="black" points="648,-930 648,-953 720,-953 720,-930 648,-930"/>
<text text-anchor="start" x="679.5" y="-937.8" font-family="arial" font-size="14.00">+</text>
<polygon fill="none" stroke="black" points="576,-907 576,-930 648,-930 648,-907 576,-907"/>
<text text-anchor="start" x="608" y="-914.8" font-family="arial" font-size="14.00">2</text>
<polygon fill="none" stroke="black" points="648,-907 648,-930 720,-930 720,-907 648,-907"/>
<text text-anchor="start" x="681.5" y="-914.8" font-family="arial" font-size="14.00">&#45;</text>
<polygon fill="none" stroke="black" points="576,-884 576,-907 720,-907 720,-884 576,-884"/>
<text text-anchor="start" x="630.5" y="-891.8" font-family="arial" font-size="14.00">Fan 2</text>
</g>
<!-- X4 -->
<g id="node4" class="node">
<title>X4</title>
<polygon fill="white" stroke="transparent" points="720,-449.5 576,-449.5 576,-334.5 720,-334.5 720,-449.5"/>
<polygon fill="none" stroke="black" points="576,-426 576,-449 720,-449 720,-426 576,-426"/>
<text text-anchor="start" x="639.5" y="-433.8" font-family="arial" font-size="14.00">X4</text>
<polygon fill="none" stroke="black" points="576,-403 576,-426 631,-426 631,-403 576,-403"/>
<text text-anchor="start" x="580" y="-410.8" font-family="arial" font-size="14.00">JST&#45;HX</text>
<polygon fill="none" stroke="black" points="631,-403 631,-426 681,-426 681,-403 631,-403"/>
<text text-anchor="start" x="635" y="-410.8" font-family="arial" font-size="14.00">female</text>
<polygon fill="none" stroke="black" points="681,-403 681,-426 720,-426 720,-403 681,-403"/>
<text text-anchor="start" x="685" y="-410.8" font-family="arial" font-size="14.00">2&#45;pin</text>
<polygon fill="none" stroke="black" points="576,-380 576,-403 648,-403 648,-380 576,-380"/>
<text text-anchor="start" x="608" y="-387.8" font-family="arial" font-size="14.00">1</text>
<polygon fill="none" stroke="black" points="648,-380 648,-403 720,-403 720,-380 648,-380"/>
<text text-anchor="start" x="679.5" y="-387.8" font-family="arial" font-size="14.00">+</text>
<polygon fill="none" stroke="black" points="576,-357 576,-380 648,-380 648,-357 576,-357"/>
<text text-anchor="start" x="608" y="-364.8" font-family="arial" font-size="14.00">2</text>
<polygon fill="none" stroke="black" points="648,-357 648,-380 720,-380 720,-357 648,-357"/>
<text text-anchor="start" x="681.5" y="-364.8" font-family="arial" font-size="14.00">&#45;</text>
<polygon fill="none" stroke="black" points="576,-334 576,-357 720,-357 720,-334 576,-334"/>
<text text-anchor="start" x="630.5" y="-341.8" font-family="arial" font-size="14.00">Fan 3</text>
</g>
<!-- X5 -->
<g id="node5" class="node">
<title>X5</title>
<polygon fill="white" stroke="transparent" points="720,-621 576,-621 576,-483 720,-483 720,-621"/>
<polygon fill="none" stroke="black" points="576,-598 576,-621 720,-621 720,-598 576,-598"/>
<text text-anchor="start" x="639.5" y="-605.8" font-family="arial" font-size="14.00">X5</text>
<polygon fill="none" stroke="black" points="576,-575 576,-598 631,-598 631,-575 576,-575"/>
<text text-anchor="start" x="580" y="-582.8" font-family="arial" font-size="14.00">JST&#45;HX</text>
<polygon fill="none" stroke="black" points="631,-575 631,-598 681,-598 681,-575 631,-575"/>
<text text-anchor="start" x="635" y="-582.8" font-family="arial" font-size="14.00">female</text>
<polygon fill="none" stroke="black" points="681,-575 681,-598 720,-598 720,-575 681,-575"/>
<text text-anchor="start" x="685" y="-582.8" font-family="arial" font-size="14.00">3&#45;pin</text>
<polygon fill="none" stroke="black" points="576,-552 576,-575 637,-575 637,-552 576,-552"/>
<text text-anchor="start" x="602.5" y="-559.8" font-family="arial" font-size="14.00">1</text>
<polygon fill="none" stroke="black" points="637,-552 637,-575 720,-575 720,-552 637,-552"/>
<text text-anchor="start" x="673.5" y="-559.8" font-family="arial" font-size="14.00">S</text>
<polygon fill="none" stroke="black" points="576,-529 576,-552 637,-552 637,-529 576,-529"/>
<text text-anchor="start" x="602.5" y="-536.8" font-family="arial" font-size="14.00">2</text>
<polygon fill="none" stroke="black" points="637,-529 637,-552 720,-552 720,-529 637,-529"/>
<text text-anchor="start" x="663" y="-536.8" font-family="arial" font-size="14.00">GND</text>
<polygon fill="none" stroke="black" points="576,-506 576,-529 637,-529 637,-506 576,-506"/>
<text text-anchor="start" x="602.5" y="-513.8" font-family="arial" font-size="14.00">3</text>
<polygon fill="none" stroke="black" points="637,-506 637,-529 720,-529 720,-506 637,-506"/>
<text text-anchor="start" x="668.5" y="-513.8" font-family="arial" font-size="14.00">NC</text>
<polygon fill="none" stroke="black" points="576,-483 576,-506 720,-506 720,-483 576,-483"/>
<text text-anchor="start" x="618" y="-490.8" font-family="arial" font-size="14.00">X position</text>
</g>
<!-- X6 -->
<g id="node6" class="node">
<title>X6</title>
<polygon fill="white" stroke="transparent" points="720,-300 576,-300 576,-162 720,-162 720,-300"/>
<polygon fill="none" stroke="black" points="576,-277 576,-300 720,-300 720,-277 576,-277"/>
<text text-anchor="start" x="639.5" y="-284.8" font-family="arial" font-size="14.00">X6</text>
<polygon fill="none" stroke="black" points="576,-254 576,-277 631,-277 631,-254 576,-254"/>
<text text-anchor="start" x="580" y="-261.8" font-family="arial" font-size="14.00">JST&#45;HX</text>
<polygon fill="none" stroke="black" points="631,-254 631,-277 681,-277 681,-254 631,-254"/>
<text text-anchor="start" x="635" y="-261.8" font-family="arial" font-size="14.00">female</text>
<polygon fill="none" stroke="black" points="681,-254 681,-277 720,-277 720,-254 681,-254"/>
<text text-anchor="start" x="685" y="-261.8" font-family="arial" font-size="14.00">3&#45;pin</text>
<polygon fill="none" stroke="black" points="576,-231 576,-254 637,-254 637,-231 576,-231"/>
<text text-anchor="start" x="602.5" y="-238.8" font-family="arial" font-size="14.00">1</text>
<polygon fill="none" stroke="black" points="637,-231 637,-254 720,-254 720,-231 637,-231"/>
<text text-anchor="start" x="673.5" y="-238.8" font-family="arial" font-size="14.00">S</text>
<polygon fill="none" stroke="black" points="576,-208 576,-231 637,-231 637,-208 576,-208"/>
<text text-anchor="start" x="602.5" y="-215.8" font-family="arial" font-size="14.00">2</text>
<polygon fill="none" stroke="black" points="637,-208 637,-231 720,-231 720,-208 637,-208"/>
<text text-anchor="start" x="663" y="-215.8" font-family="arial" font-size="14.00">GND</text>
<polygon fill="none" stroke="black" points="576,-185 576,-208 637,-208 637,-185 576,-185"/>
<text text-anchor="start" x="602.5" y="-192.8" font-family="arial" font-size="14.00">3</text>
<polygon fill="none" stroke="black" points="637,-185 637,-208 720,-208 720,-185 637,-185"/>
<text text-anchor="start" x="668.5" y="-192.8" font-family="arial" font-size="14.00">NC</text>
<polygon fill="none" stroke="black" points="576,-162 576,-185 720,-185 720,-162 576,-162"/>
<text text-anchor="start" x="618" y="-169.8" font-family="arial" font-size="14.00">Y position</text>
</g>
<!-- X7 -->
<g id="node7" class="node">
<title>X7</title>
<polygon fill="white" stroke="transparent" points="720,-138 576,-138 576,0 720,0 720,-138"/>
<polygon fill="none" stroke="black" points="576,-115 576,-138 720,-138 720,-115 576,-115"/>
<text text-anchor="start" x="639.5" y="-122.8" font-family="arial" font-size="14.00">X7</text>
<polygon fill="none" stroke="black" points="576,-92 576,-115 631,-115 631,-92 576,-92"/>
<text text-anchor="start" x="580" y="-99.8" font-family="arial" font-size="14.00">JST&#45;HX</text>
<polygon fill="none" stroke="black" points="631,-92 631,-115 681,-115 681,-92 631,-92"/>
<text text-anchor="start" x="635" y="-99.8" font-family="arial" font-size="14.00">female</text>
<polygon fill="none" stroke="black" points="681,-92 681,-115 720,-115 720,-92 681,-92"/>
<text text-anchor="start" x="685" y="-99.8" font-family="arial" font-size="14.00">3&#45;pin</text>
<polygon fill="none" stroke="black" points="576,-69 576,-92 637,-92 637,-69 576,-69"/>
<text text-anchor="start" x="602.5" y="-76.8" font-family="arial" font-size="14.00">1</text>
<polygon fill="none" stroke="black" points="637,-69 637,-92 720,-92 720,-69 637,-69"/>
<text text-anchor="start" x="673.5" y="-76.8" font-family="arial" font-size="14.00">S</text>
<polygon fill="none" stroke="black" points="576,-46 576,-69 637,-69 637,-46 576,-46"/>
<text text-anchor="start" x="602.5" y="-53.8" font-family="arial" font-size="14.00">2</text>
<polygon fill="none" stroke="black" points="637,-46 637,-69 720,-69 720,-46 637,-46"/>
<text text-anchor="start" x="663" y="-53.8" font-family="arial" font-size="14.00">GND</text>
<polygon fill="none" stroke="black" points="576,-23 576,-46 637,-46 637,-23 576,-23"/>
<text text-anchor="start" x="602.5" y="-30.8" font-family="arial" font-size="14.00">3</text>
<polygon fill="none" stroke="black" points="637,-23 637,-46 720,-46 720,-23 637,-23"/>
<text text-anchor="start" x="668.5" y="-30.8" font-family="arial" font-size="14.00">NC</text>
<polygon fill="none" stroke="black" points="576,0 576,-23 720,-23 720,0 576,0"/>
<text text-anchor="start" x="618.5" y="-7.8" font-family="arial" font-size="14.00">Z position</text>
</g>
<!-- X8 -->
<g id="node8" class="node">
<title>X8</title>
<polygon fill="white" stroke="transparent" points="720,-837 576,-837 576,-653 720,-653 720,-837"/>
<polygon fill="none" stroke="black" points="576,-814 576,-837 720,-837 720,-814 576,-814"/>
<text text-anchor="start" x="639.5" y="-821.8" font-family="arial" font-size="14.00">X8</text>
<polygon fill="none" stroke="black" points="576,-791 576,-814 631,-814 631,-791 576,-791"/>
<text text-anchor="start" x="580" y="-798.8" font-family="arial" font-size="14.00">JST&#45;HX</text>
<polygon fill="none" stroke="black" points="631,-791 631,-814 681,-814 681,-791 631,-791"/>
<text text-anchor="start" x="635" y="-798.8" font-family="arial" font-size="14.00">female</text>
<polygon fill="none" stroke="black" points="681,-791 681,-814 720,-814 720,-791 681,-791"/>
<text text-anchor="start" x="685" y="-798.8" font-family="arial" font-size="14.00">5&#45;pin</text>
<polygon fill="none" stroke="black" points="576,-768 576,-791 637,-791 637,-768 576,-768"/>
<text text-anchor="start" x="602.5" y="-775.8" font-family="arial" font-size="14.00">1</text>
<polygon fill="none" stroke="black" points="637,-768 637,-791 720,-791 720,-768 637,-768"/>
<text text-anchor="start" x="663.5" y="-775.8" font-family="arial" font-size="14.00">aux1</text>
<polygon fill="none" stroke="black" points="576,-745 576,-768 637,-768 637,-745 576,-745"/>
<text text-anchor="start" x="602.5" y="-752.8" font-family="arial" font-size="14.00">2</text>
<polygon fill="none" stroke="black" points="637,-745 637,-768 720,-768 720,-745 637,-745"/>
<text text-anchor="start" x="663.5" y="-752.8" font-family="arial" font-size="14.00">aux2</text>
<polygon fill="none" stroke="black" points="576,-722 576,-745 637,-745 637,-722 576,-722"/>
<text text-anchor="start" x="602.5" y="-729.8" font-family="arial" font-size="14.00">3</text>
<polygon fill="none" stroke="black" points="637,-722 637,-745 720,-745 720,-722 637,-722"/>
<text text-anchor="start" x="663.5" y="-729.8" font-family="arial" font-size="14.00">aux3</text>
<polygon fill="none" stroke="black" points="576,-699 576,-722 637,-722 637,-699 576,-699"/>
<text text-anchor="start" x="602.5" y="-706.8" font-family="arial" font-size="14.00">4</text>
<polygon fill="none" stroke="black" points="637,-699 637,-722 720,-722 720,-699 637,-699"/>
<text text-anchor="start" x="663.5" y="-706.8" font-family="arial" font-size="14.00">aux4</text>
<polygon fill="none" stroke="black" points="576,-676 576,-699 637,-699 637,-676 576,-676"/>
<text text-anchor="start" x="602.5" y="-683.8" font-family="arial" font-size="14.00">5</text>
<polygon fill="none" stroke="black" points="637,-676 637,-699 720,-699 720,-676 637,-676"/>
<text text-anchor="start" x="663.5" y="-683.8" font-family="arial" font-size="14.00">aux5</text>
<polygon fill="none" stroke="black" points="576,-653 576,-676 720,-676 720,-653 576,-653"/>
<text text-anchor="start" x="598" y="-660.8" font-family="arial" font-size="14.00">Aux connections</text>
</g>
<!-- W1&#45;&#45;X2 -->
<g id="edge2" class="edge">
<title>W1:e&#45;&#45;X2:w</title>
<path fill="none" stroke="#000000" stroke-width="2" d="M427,-1098C493.1,-1098 509.66,-1097 576,-1097"/>
<path fill="none" stroke="#ff0000" stroke-width="2" d="M427,-1100C493.22,-1100 509.78,-1099 576,-1099"/>
<path fill="none" stroke="#000000" stroke-width="2" d="M427,-1102C493.34,-1102 509.9,-1101 576,-1101"/>
</g>
<!-- W1&#45;&#45;X2 -->
<g id="edge4" class="edge">
<title>W1:e&#45;&#45;X2:w</title>
<path fill="none" stroke="#000000" stroke-width="2" d="M427,-1073C493.34,-1073 509.9,-1074 576,-1074"/>
<path fill="none" stroke="#000000" stroke-width="2" d="M427,-1075C493.22,-1075 509.78,-1076 576,-1076"/>
<path fill="none" stroke="#000000" stroke-width="2" d="M427,-1077C493.1,-1077 509.66,-1078 576,-1078"/>
</g>
<!-- W2&#45;&#45;X3 -->
<g id="edge6" class="edge">
<title>W2:e&#45;&#45;X3:w</title>
<path fill="none" stroke="#000000" stroke-width="2" d="M427,-940C493.1,-940 509.66,-939 576,-939"/>
<path fill="none" stroke="#ff0000" stroke-width="2" d="M427,-942C493.22,-942 509.78,-941 576,-941"/>
<path fill="none" stroke="#000000" stroke-width="2" d="M427,-944C493.34,-944 509.9,-943 576,-943"/>
</g>
<!-- W2&#45;&#45;X3 -->
<g id="edge8" class="edge">
<title>W2:e&#45;&#45;X3:w</title>
<path fill="none" stroke="#000000" stroke-width="2" d="M427,-915C493.34,-915 509.9,-916 576,-916"/>
<path fill="none" stroke="#000000" stroke-width="2" d="M427,-917C493.22,-917 509.78,-918 576,-918"/>
<path fill="none" stroke="#000000" stroke-width="2" d="M427,-919C493.1,-919 509.66,-920 576,-920"/>
</g>
<!-- W3&#45;&#45;X4 -->
<g id="edge10" class="edge">
<title>W3:e&#45;&#45;X4:w</title>
<path fill="none" stroke="#000000" stroke-width="2" d="M431,-390C495.32,-390 511.43,-389 576,-389"/>
<path fill="none" stroke="#ff0000" stroke-width="2" d="M431,-392C495.45,-392 511.55,-391 576,-391"/>
<path fill="none" stroke="#000000" stroke-width="2" d="M431,-394C495.57,-394 511.68,-393 576,-393"/>
</g>
<!-- W3&#45;&#45;X4 -->
<g id="edge12" class="edge">
<title>W3:e&#45;&#45;X4:w</title>
<path fill="none" stroke="#000000" stroke-width="2" d="M431,-365C495.57,-365 511.68,-366 576,-366"/>
<path fill="none" stroke="#000000" stroke-width="2" d="M431,-367C495.45,-367 511.55,-368 576,-368"/>
<path fill="none" stroke="#000000" stroke-width="2" d="M431,-369C495.32,-369 511.43,-370 576,-370"/>
</g>
<!-- W4&#45;&#45;X8 -->
<g id="edge14" class="edge">
<title>W4:e&#45;&#45;X8:w</title>
<path fill="none" stroke="#000000" stroke-width="2" d="M432,-781C495.64,-781.03 511.62,-778.03 576,-778"/>
<path fill="none" stroke="#ffffff" stroke-width="2" d="M432,-783C496.01,-783 511.99,-780 576,-780"/>
<path fill="none" stroke="#000000" stroke-width="2" d="M432,-785C496.38,-784.97 512.36,-781.97 576,-782"/>
</g>
<!-- W4&#45;&#45;X8 -->
<g id="edge16" class="edge">
<title>W4:e&#45;&#45;X8:w</title>
<path fill="none" stroke="#000000" stroke-width="2" d="M432,-756C495.88,-756 511.87,-755 576,-755"/>
<path fill="none" stroke="#ffffff" stroke-width="2" d="M432,-758C496,-758 512,-757 576,-757"/>
<path fill="none" stroke="#000000" stroke-width="2" d="M432,-760C496.13,-760 512.12,-759 576,-759"/>
</g>
<!-- W4&#45;&#45;X8 -->
<g id="edge18" class="edge">
<title>W4:e&#45;&#45;X8:w</title>
<path fill="none" stroke="#000000" stroke-width="2" d="M432,-731C496,-731 512,-731 576,-731"/>
<path fill="none" stroke="#ffffff" stroke-width="2" d="M432,-733C496,-733 512,-733 576,-733"/>
<path fill="none" stroke="#000000" stroke-width="2" d="M432,-735C496,-735 512,-735 576,-735"/>
</g>
<!-- W4&#45;&#45;X8 -->
<g id="edge20" class="edge">
<title>W4:e&#45;&#45;X8:w</title>
<path fill="none" stroke="#000000" stroke-width="2" d="M432,-706C496.25,-706.02 512.24,-708.02 576,-708"/>
<path fill="none" stroke="#ffffff" stroke-width="2" d="M432,-708C496.01,-708 511.99,-710 576,-710"/>
<path fill="none" stroke="#000000" stroke-width="2" d="M432,-710C495.76,-709.98 511.75,-711.98 576,-712"/>
</g>
<!-- W4&#45;&#45;X8 -->
<g id="edge22" class="edge">
<title>W4:e&#45;&#45;X8:w</title>
<path fill="none" stroke="#000000" stroke-width="2" d="M432,-681C496.51,-681.06 512.46,-685.06 576,-685"/>
<path fill="none" stroke="#ffffff" stroke-width="2" d="M432,-683C496.02,-683 511.98,-687 576,-687"/>
<path fill="none" stroke="#000000" stroke-width="2" d="M432,-685C495.54,-684.94 511.49,-688.94 576,-689"/>
</g>
<!-- W5&#45;&#45;X5 -->
<g id="edge24" class="edge">
<title>W5:e&#45;&#45;X5:w</title>
<path fill="none" stroke="#000000" stroke-width="2" d="M432,-548C495.08,-548.31 510.77,-538.31 576,-538"/>
<path fill="none" stroke="#000000" stroke-width="2" d="M432,-550C496.15,-550 511.85,-540 576,-540"/>
<path fill="none" stroke="#000000" stroke-width="2" d="M432,-552C497.23,-551.69 512.92,-541.69 576,-542"/>
</g>
<!-- W5&#45;&#45;X5 -->
<g id="edge26" class="edge">
<title>W5:e&#45;&#45;X5:w</title>
<path fill="none" stroke="#000000" stroke-width="2" d="M432,-523C500.23,-524.44 511.61,-563.44 576,-562"/>
<path fill="none" stroke="#ffffff" stroke-width="2" d="M432,-525C498.31,-525 509.69,-564 576,-564"/>
<path fill="none" stroke="#000000" stroke-width="2" d="M432,-527C496.39,-525.56 507.77,-564.56 576,-566"/>
</g>
<!-- W6&#45;&#45;X6 -->
<g id="edge28" class="edge">
<title>W6:e&#45;&#45;X6:w</title>
<path fill="none" stroke="#000000" stroke-width="2" d="M431,-231C496.67,-231.31 512.47,-241.31 576,-241"/>
<path fill="none" stroke="#ffff00" stroke-width="2" d="M431,-233C495.6,-233 511.4,-243 576,-243"/>
<path fill="none" stroke="#000000" stroke-width="2" d="M431,-235C494.53,-234.69 510.33,-244.69 576,-245"/>
</g>
<!-- W7&#45;&#45;X7 -->
<g id="edge30" class="edge">
<title>W7:e&#45;&#45;X7:w</title>
<path fill="none" stroke="#000000" stroke-width="2" d="M431,-94C494.39,-94.57 509.82,-79.57 576,-79"/>
<path fill="none" stroke="#0066ff" stroke-width="2" d="M431,-96C495.79,-96 511.21,-81 576,-81"/>
<path fill="none" stroke="#000000" stroke-width="2" d="M431,-98C497.18,-97.43 512.61,-82.43 576,-83"/>
</g>
</g>
</svg>
